<?xml version="1.0" encoding="utf-8"?>
<svg version="1.1" xmlns="http://www.w3.org/2000/svg" xmlns:xlink="http://www.w3.org/1999/xlink" height="16" width="20">
  <defs>
    <path id="path-0" opacity="1" d="M13,3.5 C12.447999999999979,3.5 12,3.9480000000000075 12,4.5 C12,5.0519999999999925 12.447999999999979,5.5 13,5.5 C13.552000000000021,5.5 14,5.0519999999999925 14,4.5 C14,3.9480000000000075 13.552000000000021,3.5 13,3.5 L13,3.5ZM8.517999999999972,5.812000000000012 L4,12 L16,12 L12.75,7.75 L11.353999999999985,9.625 L8.517999999999972,5.812000000000012 L8.517999999999972,5.812000000000012ZM17,2 C17.55200000000002,2 18,2.4480000000000075 18,3 L18,13 C18,13.551999999999992 17.55200000000002,14 17,14 L3,14 C2.447999999999979,14 2,13.551999999999992 2,13 L2,3 C2,2.4480000000000075 2.447999999999979,2 3,2 L17,2ZM2,0 C0.896000000000015,0 0,0.8950000000000102 0,2 L0,14 C0,15.104000000000013 0.896000000000015,16 2,16 L18,16 C19.105000000000018,16 20,15.104000000000013 20,14 L20,2 C20,0.8950000000000102 19.105000000000018,0 18,0 L2,0Z"/>
  </defs>
  <g opacity="1">
    <use xlink:href="#path-0" fill="rgb(255,255,255)" fill-opacity="1"/>
  </g>
</svg>